<svg xmlns="http://www.w3.org/2000/svg" width="1560" height="560" viewBox="0 0 1560 560">
<defs>
<linearGradient id="bg" x1="0" y1="0" x2="0" y2="1">
<stop offset="0%" stop-color="#f8f9fb"/>
<stop offset="100%" stop-color="#eef1f4"/>
</linearGradient>
<linearGradient id="case" x1="0" y1="0" x2="1" y2="1">
<stop offset="0%" stop-color="#d9dde0"/>
<stop offset="100%" stop-color="#bcc3c9"/>
</linearGradient>
<filter id="shadow" x="-20%" y="-20%" width="140%" height="140%">
<feDropShadow dx="0" dy="18" stdDeviation="18" flood-color="#89939b" flood-opacity="0.22"/>
</filter>
</defs>
<rect width="1560" height="560" fill="url(#bg)"/>
<rect x="24" y="26" width="1512" height="508" rx="34" fill="url(#case)" filter="url(#shadow)"/>
<rect x="1412" y="52" width="78" height="20" rx="8" fill="#2c3236" opacity="0.78"/>
<text x="62" y="46" font-family="Inter, SF Pro Display, Arial, sans-serif" font-size="15" font-weight="700" letter-spacing="1.5" fill="#6d7982">LAYER 3</text>
<text x="62" y="74" font-family="Inter, SF Pro Display, Arial, sans-serif" font-size="28" font-weight="700" fill="#202a31">Windows SpaceFn</text>
<rect x="42.0" y="92.0" width="78.0" height="72.0" rx="14" fill="#aeb6bd" opacity="0.18"/>
<rect x="42.0" y="88.0" width="78.0" height="72.0" rx="14" fill="#ffffff" stroke="#c45a2c" stroke-width="2"/>
<text x="81.0" y="129.5" font-family="Inter, SF Pro Display, Arial, sans-serif" font-size="21" font-weight="600" text-anchor="middle" fill="#24323d">Esc</text>
<rect x="128.0" y="92.0" width="78.0" height="72.0" rx="14" fill="#aeb6bd" opacity="0.18"/>
<rect x="128.0" y="88.0" width="78.0" height="72.0" rx="14" fill="#ffffff" stroke="#c45a2c" stroke-width="2"/>
<text x="167.0" y="129.5" font-family="Inter, SF Pro Display, Arial, sans-serif" font-size="21" font-weight="600" text-anchor="middle" fill="#24323d">F1</text>
<rect x="214.0" y="92.0" width="78.0" height="72.0" rx="14" fill="#aeb6bd" opacity="0.18"/>
<rect x="214.0" y="88.0" width="78.0" height="72.0" rx="14" fill="#ffffff" stroke="#c45a2c" stroke-width="2"/>
<text x="253.0" y="129.5" font-family="Inter, SF Pro Display, Arial, sans-serif" font-size="21" font-weight="600" text-anchor="middle" fill="#24323d">F2</text>
<rect x="300.0" y="92.0" width="78.0" height="72.0" rx="14" fill="#aeb6bd" opacity="0.18"/>
<rect x="300.0" y="88.0" width="78.0" height="72.0" rx="14" fill="#ffffff" stroke="#c45a2c" stroke-width="2"/>
<text x="339.0" y="129.5" font-family="Inter, SF Pro Display, Arial, sans-serif" font-size="21" font-weight="600" text-anchor="middle" fill="#24323d">F3</text>
<rect x="386.0" y="92.0" width="78.0" height="72.0" rx="14" fill="#aeb6bd" opacity="0.18"/>
<rect x="386.0" y="88.0" width="78.0" height="72.0" rx="14" fill="#ffffff" stroke="#c45a2c" stroke-width="2"/>
<text x="425.0" y="129.5" font-family="Inter, SF Pro Display, Arial, sans-serif" font-size="21" font-weight="600" text-anchor="middle" fill="#24323d">F4</text>
<rect x="472.0" y="92.0" width="78.0" height="72.0" rx="14" fill="#aeb6bd" opacity="0.18"/>
<rect x="472.0" y="88.0" width="78.0" height="72.0" rx="14" fill="#ffffff" stroke="#c45a2c" stroke-width="2"/>
<text x="511.0" y="129.5" font-family="Inter, SF Pro Display, Arial, sans-serif" font-size="21" font-weight="600" text-anchor="middle" fill="#24323d">F5</text>
<rect x="558.0" y="92.0" width="78.0" height="72.0" rx="14" fill="#aeb6bd" opacity="0.18"/>
<rect x="558.0" y="88.0" width="78.0" height="72.0" rx="14" fill="#ffffff" stroke="#c45a2c" stroke-width="2"/>
<text x="597.0" y="129.5" font-family="Inter, SF Pro Display, Arial, sans-serif" font-size="21" font-weight="600" text-anchor="middle" fill="#24323d">F6</text>
<rect x="644.0" y="92.0" width="78.0" height="72.0" rx="14" fill="#aeb6bd" opacity="0.18"/>
<rect x="644.0" y="88.0" width="78.0" height="72.0" rx="14" fill="#ffffff" stroke="#c45a2c" stroke-width="2"/>
<text x="683.0" y="129.5" font-family="Inter, SF Pro Display, Arial, sans-serif" font-size="21" font-weight="600" text-anchor="middle" fill="#24323d">F7</text>
<rect x="730.0" y="92.0" width="78.0" height="72.0" rx="14" fill="#aeb6bd" opacity="0.18"/>
<rect x="730.0" y="88.0" width="78.0" height="72.0" rx="14" fill="#ffffff" stroke="#c45a2c" stroke-width="2"/>
<text x="769.0" y="129.5" font-family="Inter, SF Pro Display, Arial, sans-serif" font-size="21" font-weight="600" text-anchor="middle" fill="#24323d">F8</text>
<rect x="816.0" y="92.0" width="78.0" height="72.0" rx="14" fill="#aeb6bd" opacity="0.18"/>
<rect x="816.0" y="88.0" width="78.0" height="72.0" rx="14" fill="#ffffff" stroke="#c45a2c" stroke-width="2"/>
<text x="855.0" y="129.5" font-family="Inter, SF Pro Display, Arial, sans-serif" font-size="21" font-weight="600" text-anchor="middle" fill="#24323d">F9</text>
<rect x="902.0" y="92.0" width="78.0" height="72.0" rx="14" fill="#aeb6bd" opacity="0.18"/>
<rect x="902.0" y="88.0" width="78.0" height="72.0" rx="14" fill="#ffffff" stroke="#c45a2c" stroke-width="2"/>
<text x="941.0" y="129.5" font-family="Inter, SF Pro Display, Arial, sans-serif" font-size="21" font-weight="600" text-anchor="middle" fill="#24323d">F10</text>
<rect x="988.0" y="92.0" width="78.0" height="72.0" rx="14" fill="#aeb6bd" opacity="0.18"/>
<rect x="988.0" y="88.0" width="78.0" height="72.0" rx="14" fill="#ffffff" stroke="#c45a2c" stroke-width="2"/>
<text x="1027.0" y="129.5" font-family="Inter, SF Pro Display, Arial, sans-serif" font-size="21" font-weight="600" text-anchor="middle" fill="#24323d">F11</text>
<rect x="1074.0" y="92.0" width="78.0" height="72.0" rx="14" fill="#aeb6bd" opacity="0.18"/>
<rect x="1074.0" y="88.0" width="78.0" height="72.0" rx="14" fill="#ffffff" stroke="#c45a2c" stroke-width="2"/>
<text x="1113.0" y="129.5" font-family="Inter, SF Pro Display, Arial, sans-serif" font-size="21" font-weight="600" text-anchor="middle" fill="#24323d">F12</text>
<rect x="1160.0" y="92.0" width="164.0" height="72.0" rx="14" fill="#aeb6bd" opacity="0.18"/>
<rect x="1160.0" y="88.0" width="164.0" height="72.0" rx="14" fill="#ffffff" stroke="#c45a2c" stroke-width="2"/>
<text x="1242.0" y="129.5" font-family="Inter, SF Pro Display, Arial, sans-serif" font-size="21" font-weight="600" text-anchor="middle" fill="#24323d">Delete</text>
<rect x="1332.0" y="92.0" width="78.0" height="72.0" rx="14" fill="#aeb6bd" opacity="0.18"/>
<rect x="1332.0" y="88.0" width="78.0" height="72.0" rx="14" fill="#eef1f4" stroke="#d8dde2" stroke-width="2"/>
<text x="1371.0" y="129.5" font-family="Inter, SF Pro Display, Arial, sans-serif" font-size="21" font-weight="600" text-anchor="middle" fill="#8e99a3">TRNS</text>
<rect x="42.0" y="178.0" width="121.0" height="72.0" rx="14" fill="#aeb6bd" opacity="0.18"/>
<rect x="42.0" y="174.0" width="121.0" height="72.0" rx="14" fill="#eef1f4" stroke="#d8dde2" stroke-width="2"/>
<text x="102.5" y="215.5" font-family="Inter, SF Pro Display, Arial, sans-serif" font-size="21" font-weight="600" text-anchor="middle" fill="#8e99a3">TRNS</text>
<rect x="171.0" y="178.0" width="78.0" height="72.0" rx="14" fill="#aeb6bd" opacity="0.18"/>
<rect x="171.0" y="174.0" width="78.0" height="72.0" rx="14" fill="#ffffff" stroke="#c45a2c" stroke-width="2"/>
<text x="210.0" y="215.5" font-family="Inter, SF Pro Display, Arial, sans-serif" font-size="21" font-weight="600" text-anchor="middle" fill="#24323d">Home</text>
<rect x="257.0" y="178.0" width="78.0" height="72.0" rx="14" fill="#aeb6bd" opacity="0.18"/>
<rect x="257.0" y="174.0" width="78.0" height="72.0" rx="14" fill="#ffffff" stroke="#c45a2c" stroke-width="2"/>
<text x="296.0" y="215.5" font-family="Inter, SF Pro Display, Arial, sans-serif" font-size="21" font-weight="600" text-anchor="middle" fill="#24323d">Up</text>
<rect x="343.0" y="178.0" width="78.0" height="72.0" rx="14" fill="#aeb6bd" opacity="0.18"/>
<rect x="343.0" y="174.0" width="78.0" height="72.0" rx="14" fill="#ffffff" stroke="#c45a2c" stroke-width="2"/>
<text x="382.0" y="215.5" font-family="Inter, SF Pro Display, Arial, sans-serif" font-size="21" font-weight="600" text-anchor="middle" fill="#24323d">End</text>
<rect x="429.0" y="178.0" width="78.0" height="72.0" rx="14" fill="#aeb6bd" opacity="0.18"/>
<rect x="429.0" y="174.0" width="78.0" height="72.0" rx="14" fill="#eef1f4" stroke="#d8dde2" stroke-width="2"/>
<text x="468.0" y="215.5" font-family="Inter, SF Pro Display, Arial, sans-serif" font-size="21" font-weight="600" text-anchor="middle" fill="#8e99a3">TRNS</text>
<rect x="515.0" y="178.0" width="78.0" height="72.0" rx="14" fill="#aeb6bd" opacity="0.18"/>
<rect x="515.0" y="174.0" width="78.0" height="72.0" rx="14" fill="#eef1f4" stroke="#d8dde2" stroke-width="2"/>
<text x="554.0" y="215.5" font-family="Inter, SF Pro Display, Arial, sans-serif" font-size="21" font-weight="600" text-anchor="middle" fill="#8e99a3">TRNS</text>
<rect x="601.0" y="178.0" width="78.0" height="72.0" rx="14" fill="#aeb6bd" opacity="0.18"/>
<rect x="601.0" y="174.0" width="78.0" height="72.0" rx="14" fill="#eef1f4" stroke="#d8dde2" stroke-width="2"/>
<text x="640.0" y="215.5" font-family="Inter, SF Pro Display, Arial, sans-serif" font-size="21" font-weight="600" text-anchor="middle" fill="#8e99a3">TRNS</text>
<rect x="687.0" y="178.0" width="78.0" height="72.0" rx="14" fill="#aeb6bd" opacity="0.18"/>
<rect x="687.0" y="174.0" width="78.0" height="72.0" rx="14" fill="#eef1f4" stroke="#d8dde2" stroke-width="2"/>
<text x="726.0" y="215.5" font-family="Inter, SF Pro Display, Arial, sans-serif" font-size="21" font-weight="600" text-anchor="middle" fill="#8e99a3">TRNS</text>
<rect x="773.0" y="178.0" width="78.0" height="72.0" rx="14" fill="#aeb6bd" opacity="0.18"/>
<rect x="773.0" y="174.0" width="78.0" height="72.0" rx="14" fill="#eef1f4" stroke="#d8dde2" stroke-width="2"/>
<text x="812.0" y="215.5" font-family="Inter, SF Pro Display, Arial, sans-serif" font-size="21" font-weight="600" text-anchor="middle" fill="#8e99a3">TRNS</text>
<rect x="859.0" y="178.0" width="78.0" height="72.0" rx="14" fill="#aeb6bd" opacity="0.18"/>
<rect x="859.0" y="174.0" width="78.0" height="72.0" rx="14" fill="#eef1f4" stroke="#d8dde2" stroke-width="2"/>
<text x="898.0" y="215.5" font-family="Inter, SF Pro Display, Arial, sans-serif" font-size="21" font-weight="600" text-anchor="middle" fill="#8e99a3">TRNS</text>
<rect x="945.0" y="178.0" width="78.0" height="72.0" rx="14" fill="#aeb6bd" opacity="0.18"/>
<rect x="945.0" y="174.0" width="78.0" height="72.0" rx="14" fill="#eef1f4" stroke="#d8dde2" stroke-width="2"/>
<text x="984.0" y="215.5" font-family="Inter, SF Pro Display, Arial, sans-serif" font-size="21" font-weight="600" text-anchor="middle" fill="#8e99a3">TRNS</text>
<rect x="1031.0" y="178.0" width="78.0" height="72.0" rx="14" fill="#aeb6bd" opacity="0.18"/>
<rect x="1031.0" y="174.0" width="78.0" height="72.0" rx="14" fill="#eef1f4" stroke="#d8dde2" stroke-width="2"/>
<text x="1070.0" y="215.5" font-family="Inter, SF Pro Display, Arial, sans-serif" font-size="21" font-weight="600" text-anchor="middle" fill="#8e99a3">TRNS</text>
<rect x="1117.0" y="178.0" width="78.0" height="72.0" rx="14" fill="#aeb6bd" opacity="0.18"/>
<rect x="1117.0" y="174.0" width="78.0" height="72.0" rx="14" fill="#eef1f4" stroke="#d8dde2" stroke-width="2"/>
<text x="1156.0" y="215.5" font-family="Inter, SF Pro Display, Arial, sans-serif" font-size="21" font-weight="600" text-anchor="middle" fill="#8e99a3">TRNS</text>
<rect x="1203.0" y="178.0" width="121.0" height="72.0" rx="14" fill="#aeb6bd" opacity="0.18"/>
<rect x="1203.0" y="174.0" width="121.0" height="72.0" rx="14" fill="#eef1f4" stroke="#d8dde2" stroke-width="2"/>
<text x="1263.5" y="215.5" font-family="Inter, SF Pro Display, Arial, sans-serif" font-size="21" font-weight="600" text-anchor="middle" fill="#8e99a3">TRNS</text>
<rect x="1332.0" y="178.0" width="78.0" height="72.0" rx="14" fill="#aeb6bd" opacity="0.18"/>
<rect x="1332.0" y="174.0" width="78.0" height="72.0" rx="14" fill="#eef1f4" stroke="#d8dde2" stroke-width="2"/>
<text x="1371.0" y="215.5" font-family="Inter, SF Pro Display, Arial, sans-serif" font-size="21" font-weight="600" text-anchor="middle" fill="#8e99a3">TRNS</text>
<rect x="42.0" y="264.0" width="142.5" height="72.0" rx="14" fill="#aeb6bd" opacity="0.18"/>
<rect x="42.0" y="260.0" width="142.5" height="72.0" rx="14" fill="#eef1f4" stroke="#d8dde2" stroke-width="2"/>
<text x="113.2" y="301.5" font-family="Inter, SF Pro Display, Arial, sans-serif" font-size="21" font-weight="600" text-anchor="middle" fill="#8e99a3">TRNS</text>
<rect x="192.5" y="264.0" width="78.0" height="72.0" rx="14" fill="#aeb6bd" opacity="0.18"/>
<rect x="192.5" y="260.0" width="78.0" height="72.0" rx="14" fill="#ffffff" stroke="#c45a2c" stroke-width="2"/>
<text x="231.5" y="301.5" font-family="Inter, SF Pro Display, Arial, sans-serif" font-size="21" font-weight="600" text-anchor="middle" fill="#24323d">Left</text>
<rect x="278.5" y="264.0" width="78.0" height="72.0" rx="14" fill="#aeb6bd" opacity="0.18"/>
<rect x="278.5" y="260.0" width="78.0" height="72.0" rx="14" fill="#ffffff" stroke="#c45a2c" stroke-width="2"/>
<text x="317.5" y="301.5" font-family="Inter, SF Pro Display, Arial, sans-serif" font-size="21" font-weight="600" text-anchor="middle" fill="#24323d">Down</text>
<rect x="364.5" y="264.0" width="78.0" height="72.0" rx="14" fill="#aeb6bd" opacity="0.18"/>
<rect x="364.5" y="260.0" width="78.0" height="72.0" rx="14" fill="#ffffff" stroke="#c45a2c" stroke-width="2"/>
<text x="403.5" y="301.5" font-family="Inter, SF Pro Display, Arial, sans-serif" font-size="21" font-weight="600" text-anchor="middle" fill="#24323d">Right</text>
<rect x="450.5" y="264.0" width="78.0" height="72.0" rx="14" fill="#aeb6bd" opacity="0.18"/>
<rect x="450.5" y="260.0" width="78.0" height="72.0" rx="14" fill="#eef1f4" stroke="#d8dde2" stroke-width="2"/>
<text x="489.5" y="301.5" font-family="Inter, SF Pro Display, Arial, sans-serif" font-size="21" font-weight="600" text-anchor="middle" fill="#8e99a3">TRNS</text>
<rect x="536.5" y="264.0" width="78.0" height="72.0" rx="14" fill="#aeb6bd" opacity="0.18"/>
<rect x="536.5" y="260.0" width="78.0" height="72.0" rx="14" fill="#eef1f4" stroke="#d8dde2" stroke-width="2"/>
<text x="575.5" y="301.5" font-family="Inter, SF Pro Display, Arial, sans-serif" font-size="21" font-weight="600" text-anchor="middle" fill="#8e99a3">TRNS</text>
<rect x="622.5" y="264.0" width="78.0" height="72.0" rx="14" fill="#aeb6bd" opacity="0.18"/>
<rect x="622.5" y="260.0" width="78.0" height="72.0" rx="14" fill="#ffffff" stroke="#c45a2c" stroke-width="2"/>
<text x="661.5" y="301.5" font-family="Inter, SF Pro Display, Arial, sans-serif" font-size="21" font-weight="600" text-anchor="middle" fill="#24323d">Left</text>
<rect x="708.5" y="264.0" width="78.0" height="72.0" rx="14" fill="#aeb6bd" opacity="0.18"/>
<rect x="708.5" y="260.0" width="78.0" height="72.0" rx="14" fill="#ffffff" stroke="#c45a2c" stroke-width="2"/>
<text x="747.5" y="301.5" font-family="Inter, SF Pro Display, Arial, sans-serif" font-size="21" font-weight="600" text-anchor="middle" fill="#24323d">Down</text>
<rect x="794.5" y="264.0" width="78.0" height="72.0" rx="14" fill="#aeb6bd" opacity="0.18"/>
<rect x="794.5" y="260.0" width="78.0" height="72.0" rx="14" fill="#ffffff" stroke="#c45a2c" stroke-width="2"/>
<text x="833.5" y="301.5" font-family="Inter, SF Pro Display, Arial, sans-serif" font-size="21" font-weight="600" text-anchor="middle" fill="#24323d">Up</text>
<rect x="880.5" y="264.0" width="78.0" height="72.0" rx="14" fill="#aeb6bd" opacity="0.18"/>
<rect x="880.5" y="260.0" width="78.0" height="72.0" rx="14" fill="#ffffff" stroke="#c45a2c" stroke-width="2"/>
<text x="919.5" y="301.5" font-family="Inter, SF Pro Display, Arial, sans-serif" font-size="21" font-weight="600" text-anchor="middle" fill="#24323d">Right</text>
<rect x="966.5" y="264.0" width="78.0" height="72.0" rx="14" fill="#aeb6bd" opacity="0.18"/>
<rect x="966.5" y="260.0" width="78.0" height="72.0" rx="14" fill="#eef1f4" stroke="#d8dde2" stroke-width="2"/>
<text x="1005.5" y="301.5" font-family="Inter, SF Pro Display, Arial, sans-serif" font-size="21" font-weight="600" text-anchor="middle" fill="#8e99a3">TRNS</text>
<rect x="1052.5" y="264.0" width="78.0" height="72.0" rx="14" fill="#aeb6bd" opacity="0.18"/>
<rect x="1052.5" y="260.0" width="78.0" height="72.0" rx="14" fill="#eef1f4" stroke="#d8dde2" stroke-width="2"/>
<text x="1091.5" y="301.5" font-family="Inter, SF Pro Display, Arial, sans-serif" font-size="21" font-weight="600" text-anchor="middle" fill="#8e99a3">TRNS</text>
<rect x="1138.5" y="264.0" width="185.5" height="72.0" rx="14" fill="#aeb6bd" opacity="0.18"/>
<rect x="1138.5" y="260.0" width="185.5" height="72.0" rx="14" fill="#eef1f4" stroke="#d8dde2" stroke-width="2"/>
<text x="1231.2" y="301.5" font-family="Inter, SF Pro Display, Arial, sans-serif" font-size="21" font-weight="600" text-anchor="middle" fill="#8e99a3">TRNS</text>
<rect x="1332.0" y="264.0" width="78.0" height="72.0" rx="14" fill="#aeb6bd" opacity="0.18"/>
<rect x="1332.0" y="260.0" width="78.0" height="72.0" rx="14" fill="#eef1f4" stroke="#d8dde2" stroke-width="2"/>
<text x="1371.0" y="301.5" font-family="Inter, SF Pro Display, Arial, sans-serif" font-size="21" font-weight="600" text-anchor="middle" fill="#8e99a3">TRNS</text>
<rect x="42.0" y="350.0" width="185.5" height="72.0" rx="14" fill="#aeb6bd" opacity="0.18"/>
<rect x="42.0" y="346.0" width="185.5" height="72.0" rx="14" fill="#eef1f4" stroke="#d8dde2" stroke-width="2"/>
<text x="134.8" y="387.5" font-family="Inter, SF Pro Display, Arial, sans-serif" font-size="21" font-weight="600" text-anchor="middle" fill="#8e99a3">TRNS</text>
<rect x="235.5" y="350.0" width="78.0" height="72.0" rx="14" fill="#aeb6bd" opacity="0.18"/>
<rect x="235.5" y="346.0" width="78.0" height="72.0" rx="14" fill="#eef1f4" stroke="#d8dde2" stroke-width="2"/>
<text x="274.5" y="387.5" font-family="Inter, SF Pro Display, Arial, sans-serif" font-size="21" font-weight="600" text-anchor="middle" fill="#8e99a3">TRNS</text>
<rect x="321.5" y="350.0" width="78.0" height="72.0" rx="14" fill="#aeb6bd" opacity="0.18"/>
<rect x="321.5" y="346.0" width="78.0" height="72.0" rx="14" fill="#eef1f4" stroke="#d8dde2" stroke-width="2"/>
<text x="360.5" y="387.5" font-family="Inter, SF Pro Display, Arial, sans-serif" font-size="21" font-weight="600" text-anchor="middle" fill="#8e99a3">TRNS</text>
<rect x="407.5" y="350.0" width="78.0" height="72.0" rx="14" fill="#aeb6bd" opacity="0.18"/>
<rect x="407.5" y="346.0" width="78.0" height="72.0" rx="14" fill="#eef1f4" stroke="#d8dde2" stroke-width="2"/>
<text x="446.5" y="387.5" font-family="Inter, SF Pro Display, Arial, sans-serif" font-size="21" font-weight="600" text-anchor="middle" fill="#8e99a3">TRNS</text>
<rect x="493.5" y="350.0" width="78.0" height="72.0" rx="14" fill="#aeb6bd" opacity="0.18"/>
<rect x="493.5" y="346.0" width="78.0" height="72.0" rx="14" fill="#eef1f4" stroke="#d8dde2" stroke-width="2"/>
<text x="532.5" y="387.5" font-family="Inter, SF Pro Display, Arial, sans-serif" font-size="21" font-weight="600" text-anchor="middle" fill="#8e99a3">TRNS</text>
<rect x="579.5" y="350.0" width="78.0" height="72.0" rx="14" fill="#aeb6bd" opacity="0.18"/>
<rect x="579.5" y="346.0" width="78.0" height="72.0" rx="14" fill="#eef1f4" stroke="#d8dde2" stroke-width="2"/>
<text x="618.5" y="387.5" font-family="Inter, SF Pro Display, Arial, sans-serif" font-size="21" font-weight="600" text-anchor="middle" fill="#8e99a3">TRNS</text>
<rect x="665.5" y="350.0" width="78.0" height="72.0" rx="14" fill="#aeb6bd" opacity="0.18"/>
<rect x="665.5" y="346.0" width="78.0" height="72.0" rx="14" fill="#eef1f4" stroke="#d8dde2" stroke-width="2"/>
<text x="704.5" y="387.5" font-family="Inter, SF Pro Display, Arial, sans-serif" font-size="21" font-weight="600" text-anchor="middle" fill="#8e99a3">TRNS</text>
<rect x="751.5" y="350.0" width="78.0" height="72.0" rx="14" fill="#aeb6bd" opacity="0.18"/>
<rect x="751.5" y="346.0" width="78.0" height="72.0" rx="14" fill="#eef1f4" stroke="#d8dde2" stroke-width="2"/>
<text x="790.5" y="387.5" font-family="Inter, SF Pro Display, Arial, sans-serif" font-size="21" font-weight="600" text-anchor="middle" fill="#8e99a3">TRNS</text>
<rect x="837.5" y="350.0" width="78.0" height="72.0" rx="14" fill="#aeb6bd" opacity="0.18"/>
<rect x="837.5" y="346.0" width="78.0" height="72.0" rx="14" fill="#eef1f4" stroke="#d8dde2" stroke-width="2"/>
<text x="876.5" y="387.5" font-family="Inter, SF Pro Display, Arial, sans-serif" font-size="21" font-weight="600" text-anchor="middle" fill="#8e99a3">TRNS</text>
<rect x="923.5" y="350.0" width="78.0" height="72.0" rx="14" fill="#aeb6bd" opacity="0.18"/>
<rect x="923.5" y="346.0" width="78.0" height="72.0" rx="14" fill="#eef1f4" stroke="#d8dde2" stroke-width="2"/>
<text x="962.5" y="387.5" font-family="Inter, SF Pro Display, Arial, sans-serif" font-size="21" font-weight="600" text-anchor="middle" fill="#8e99a3">TRNS</text>
<rect x="1009.5" y="350.0" width="78.0" height="72.0" rx="14" fill="#aeb6bd" opacity="0.18"/>
<rect x="1009.5" y="346.0" width="78.0" height="72.0" rx="14" fill="#eef1f4" stroke="#d8dde2" stroke-width="2"/>
<text x="1048.5" y="387.5" font-family="Inter, SF Pro Display, Arial, sans-serif" font-size="21" font-weight="600" text-anchor="middle" fill="#8e99a3">TRNS</text>
<rect x="1095.5" y="350.0" width="142.5" height="72.0" rx="14" fill="#aeb6bd" opacity="0.18"/>
<rect x="1095.5" y="346.0" width="142.5" height="72.0" rx="14" fill="#eef1f4" stroke="#d8dde2" stroke-width="2"/>
<text x="1166.8" y="387.5" font-family="Inter, SF Pro Display, Arial, sans-serif" font-size="21" font-weight="600" text-anchor="middle" fill="#8e99a3">TRNS</text>
<rect x="1246.0" y="350.0" width="78.0" height="72.0" rx="14" fill="#aeb6bd" opacity="0.18"/>
<rect x="1246.0" y="346.0" width="78.0" height="72.0" rx="14" fill="#ffffff" stroke="#c45a2c" stroke-width="2"/>
<text x="1285.0" y="387.5" font-family="Inter, SF Pro Display, Arial, sans-serif" font-size="21" font-weight="600" text-anchor="middle" fill="#24323d">PgUp</text>
<rect x="1332.0" y="350.0" width="78.0" height="72.0" rx="14" fill="#aeb6bd" opacity="0.18"/>
<rect x="1332.0" y="346.0" width="78.0" height="72.0" rx="14" fill="#eef1f4" stroke="#d8dde2" stroke-width="2"/>
<text x="1371.0" y="387.5" font-family="Inter, SF Pro Display, Arial, sans-serif" font-size="21" font-weight="600" text-anchor="middle" fill="#8e99a3">TRNS</text>
<rect x="42.0" y="436.0" width="99.5" height="72.0" rx="14" fill="#aeb6bd" opacity="0.18"/>
<rect x="42.0" y="432.0" width="99.5" height="72.0" rx="14" fill="#eef1f4" stroke="#d8dde2" stroke-width="2"/>
<text x="91.8" y="473.5" font-family="Inter, SF Pro Display, Arial, sans-serif" font-size="21" font-weight="600" text-anchor="middle" fill="#8e99a3">TRNS</text>
<rect x="149.5" y="436.0" width="99.5" height="72.0" rx="14" fill="#aeb6bd" opacity="0.18"/>
<rect x="149.5" y="432.0" width="99.5" height="72.0" rx="14" fill="#eef1f4" stroke="#d8dde2" stroke-width="2"/>
<text x="199.2" y="473.5" font-family="Inter, SF Pro Display, Arial, sans-serif" font-size="21" font-weight="600" text-anchor="middle" fill="#8e99a3">TRNS</text>
<rect x="257.0" y="436.0" width="99.5" height="72.0" rx="14" fill="#aeb6bd" opacity="0.18"/>
<rect x="257.0" y="432.0" width="99.5" height="72.0" rx="14" fill="#eef1f4" stroke="#d8dde2" stroke-width="2"/>
<text x="306.8" y="473.5" font-family="Inter, SF Pro Display, Arial, sans-serif" font-size="21" font-weight="600" text-anchor="middle" fill="#8e99a3">TRNS</text>
<rect x="364.5" y="436.0" width="529.5" height="72.0" rx="14" fill="#aeb6bd" opacity="0.18"/>
<rect x="364.5" y="432.0" width="529.5" height="72.0" rx="14" fill="#e5e8eb" stroke="#d4d9df" stroke-width="2"/>
<text x="629.2" y="473.5" font-family="Inter, SF Pro Display, Arial, sans-serif" font-size="21" font-weight="600" text-anchor="middle" fill="#8f969d">NO</text>
<rect x="902.0" y="436.0" width="78.0" height="72.0" rx="14" fill="#aeb6bd" opacity="0.18"/>
<rect x="902.0" y="432.0" width="78.0" height="72.0" rx="14" fill="#eef1f4" stroke="#d8dde2" stroke-width="2"/>
<text x="941.0" y="473.5" font-family="Inter, SF Pro Display, Arial, sans-serif" font-size="21" font-weight="600" text-anchor="middle" fill="#8e99a3">TRNS</text>
<rect x="988.0" y="436.0" width="78.0" height="72.0" rx="14" fill="#aeb6bd" opacity="0.18"/>
<rect x="988.0" y="432.0" width="78.0" height="72.0" rx="14" fill="#eef1f4" stroke="#d8dde2" stroke-width="2"/>
<text x="1027.0" y="473.5" font-family="Inter, SF Pro Display, Arial, sans-serif" font-size="21" font-weight="600" text-anchor="middle" fill="#8e99a3">TRNS</text>
<rect x="1074.0" y="436.0" width="78.0" height="72.0" rx="14" fill="#aeb6bd" opacity="0.18"/>
<rect x="1074.0" y="432.0" width="78.0" height="72.0" rx="14" fill="#ffffff" stroke="#c45a2c" stroke-width="2"/>
<text x="1113.0" y="473.5" font-family="Inter, SF Pro Display, Arial, sans-serif" font-size="21" font-weight="600" text-anchor="middle" fill="#24323d">Menu</text>
<rect x="1160.0" y="436.0" width="78.0" height="72.0" rx="14" fill="#aeb6bd" opacity="0.18"/>
<rect x="1160.0" y="432.0" width="78.0" height="72.0" rx="14" fill="#ffffff" stroke="#c45a2c" stroke-width="2"/>
<text x="1199.0" y="473.5" font-family="Inter, SF Pro Display, Arial, sans-serif" font-size="21" font-weight="600" text-anchor="middle" fill="#24323d">Home</text>
<rect x="1246.0" y="436.0" width="78.0" height="72.0" rx="14" fill="#aeb6bd" opacity="0.18"/>
<rect x="1246.0" y="432.0" width="78.0" height="72.0" rx="14" fill="#ffffff" stroke="#c45a2c" stroke-width="2"/>
<text x="1285.0" y="473.5" font-family="Inter, SF Pro Display, Arial, sans-serif" font-size="21" font-weight="600" text-anchor="middle" fill="#24323d">PgDn</text>
<rect x="1332.0" y="436.0" width="78.0" height="72.0" rx="14" fill="#aeb6bd" opacity="0.18"/>
<rect x="1332.0" y="432.0" width="78.0" height="72.0" rx="14" fill="#ffffff" stroke="#c45a2c" stroke-width="2"/>
<text x="1371.0" y="473.5" font-family="Inter, SF Pro Display, Arial, sans-serif" font-size="21" font-weight="600" text-anchor="middle" fill="#24323d">End</text>
</svg>